<svg width="45" height="41" viewBox="0 0 45 41" fill="none" xmlns="http://www.w3.org/2000/svg">
<g id="Group 3">
<path id="Vector 320" d="M2.89574 7.29821C2.89574 -1.29537 2.9865 9.18481 9.49885 9.18481C17.0734 9.18481 5.12936 -0.487573 4.78235 5.41161C4.15402 16.0932 13.1033 6.5762 9.39403 5.51642C8.80874 5.34919 3.62233 5.2997 5.20159 6.87896C6.51508 8.19245 7.88461 2.48436 4.78235 3.94425C2.09849 5.20724 0.427644 8.97519 4.78235 8.97519C9.28011 8.97519 7.41465 4.52476 3.94386 5.51642C2.35929 5.96915 6.91078 7.19541 8.55555 7.29821C11.1731 7.4618 6.63057 7.29821 5.93527 7.29821C4.6497 7.29821 8.55555 5.75388 8.55555 4.46831C8.55555 0.0312975 3.98983 1.93997 6.66895 7.29821" stroke="#1E1E1E" stroke-width="3" stroke-linecap="round" stroke-linejoin="round"/>
<path id="Vector 321" d="M37.2418 10.7404C36.7597 6.8838 33.5144 12.3403 37.2418 14.0944C40.8895 15.811 45.0132 6.08824 41.8535 5.18545C38.7222 4.29082 35.1407 9.73586 38.2899 10.6356C43.5159 12.1288 43.0476 4.58648 39.5476 7.38649C38.3966 8.30729 39.1284 13.2626 39.1284 11.7886C39.1284 11.1622 38.4291 8.06854 37.3466 9.69233C37.1123 10.0437 36.6397 7.80573 35.7744 7.80573C34.4547 7.80573 36.085 11.2606 36.4033 11.5789C38.6301 13.8057 36.3399 10.6576 37.2418 8.85384" stroke="#1E1E1E" stroke-width="3" stroke-linecap="round" stroke-linejoin="round"/>
<path id="Vector 322" d="M4.34924 29.0199C7.58961 32.2603 9.65122 35.9442 14.028 37.9785C21.2826 41.3504 27.3111 37.0943 32.8671 32.6494" stroke="#1E1E1E" stroke-width="3" stroke-linecap="round" stroke-linejoin="round"/>
<path id="Vector 323" d="M39.6077 10.3536C39.6077 10.5265 39.6077 10.6993 39.6077 10.8721" stroke="#1E1E1E" stroke-width="3" stroke-linecap="round" stroke-linejoin="round"/>
<path id="Vector 324" d="M39.0892 10.3536C39.0892 10.1808 39.0892 10.0079 39.0892 9.83508" stroke="#1E1E1E" stroke-width="3" stroke-linecap="round" stroke-linejoin="round"/>
<path id="Vector 325" d="M39.0892 9.83523C39.0892 10.3579 39.7966 9.12784 40.1262 8.79822" stroke="#1E1E1E" stroke-width="3" stroke-linecap="round" stroke-linejoin="round"/>
<path id="Vector 326" d="M40.1262 8.79822C40.0562 9.35807 39.3375 9.85711 39.0892 10.3537" stroke="#1E1E1E" stroke-width="3" stroke-linecap="round" stroke-linejoin="round"/>
<path id="Vector 327" d="M4.34922 7.2425C5.08299 5.59152 4.44338 3.22429 6.45205 2.3455C8.94619 1.25431 12.0176 3.1697 10.9746 6.09026C9.80927 9.35312 5.88465 6.1727 5.44385 4.18907C5.01284 2.24954 9.09785 2.91956 9.93757 3.72818C12.4636 6.16066 7.6399 10.298 6.1928 8.19309C4.95025 6.38574 5.40269 2.55772 8.38205 3.72818C11.3679 4.90118 9.93844 11.9254 6.45205 10.0079C4.06532 8.69516 2.17762 2.63355 6.45205 2.63355C10.1923 2.63355 10.4316 8.86042 7.34504 10.1231C4.13674 11.4356 1.61779 5.24358 4.86773 4.16027C8.466 2.96084 9.34921 9.47047 7.22981 11.0449C4.21725 13.2828 1.91825 5.8545 3.85952 3.67057C6.2851 0.941791 8.41427 5.5581 7.86354 7.761C6.97595 11.3114 2.84924 7.56397 4.14758 4.67877C6.20015 0.1175 8.78533 5.54094 8.78533 8.04906C8.78533 10.1161 6.93765 9.72736 5.96235 8.48115C4.61063 6.75395 5.13992 4.87904 5.90474 3.09445" stroke="#1E1E1E" stroke-width="3" stroke-linecap="round" stroke-linejoin="round"/>
<path id="Vector 328" d="M6.94178 10.3536C5.15593 10.552 6.91286 12.9335 8.23805 10.8721C9.13036 9.48402 8.4973 7.43169 8.4973 9.31654C8.4973 10.3863 9.53432 11.7028 9.53432 10.0943C9.53432 8.32969 7.54028 10.2428 9.53432 10.3536C12.3028 10.5074 7.00526 4.79618 6.94178 6.95446C6.88107 9.01867 8.20965 12.1334 8.4685 8.25073C8.61922 5.9899 6.42328 2.47887 6.42328 6.20551" stroke="#1E1E1E" stroke-width="3" stroke-linecap="round" stroke-linejoin="round"/>
</g>
</svg>
