<svg width="36" height="42" viewBox="0 0 36 42" fill="none" xmlns="http://www.w3.org/2000/svg">
<g id="Group 2">
<path id="Vector 164" d="M7.68269 14.3276C7.68269 12.1681 7.12535 11.1876 5.64053 13.6173C2.4298 18.8713 -0.684711 30.174 8.57059 31.3309C16.6971 32.3467 22.9277 21.3983 19.1366 14.5052C15.0296 7.03807 5.87333 8.27428 3.68716 15.9259" stroke="#1E1E1E" stroke-width="3" stroke-linecap="round" stroke-linejoin="round"/>
<path id="Vector 165" d="M18.0047 22.9222C18.0047 20.7627 17.4474 19.7822 15.9626 22.2119C12.7518 27.4658 9.63731 38.7685 18.8926 39.9254C27.0192 40.9413 33.2498 29.9929 29.4586 23.0998C25.3516 15.6327 16.1953 16.8689 14.0092 24.5204" stroke="#1E1E1E" stroke-width="3" stroke-linecap="round" stroke-linejoin="round"/>
<path id="Vector 167" d="M21.828 7.28243C21.828 5.12291 21.2707 4.1424 19.7859 6.57211C16.5751 11.826 13.4606 23.1287 22.7159 24.2856C30.8425 25.3015 37.0731 14.3531 33.2819 7.46C29.1749 -0.00715429 20.0187 1.22905 17.8325 8.88064" stroke="#1E1E1E" stroke-width="3" stroke-linecap="round" stroke-linejoin="round"/>
</g>
</svg>
