<svg width="63" height="53" viewBox="0 0 63 53" fill="none" xmlns="http://www.w3.org/2000/svg">
<path id="Vector 112" d="M9.22779 48.8746C9.53691 44.547 11.2451 40.6624 13.2233 36.8554C17.8173 28.0141 22.0968 19.0219 26.6507 10.1643C27.697 8.12918 28.7834 6.18208 30.3842 4.53133C30.4833 4.42908 32.6299 2.7675 32.4474 2.40259C31.8222 1.15218 32.2855 5.22759 32.5784 6.59457C34.3764 14.985 37.3953 23.2182 40.3401 31.2552C41.8457 35.3642 43.4808 39.4016 45.3181 43.3726C46.1013 45.0653 47.7037 50.208 47.8726 48.3506C48.1139 45.6955 42.4933 40.8814 40.8641 39.4099C32.8459 32.1676 22.2013 27.0626 12.6665 22.1507C10.3549 20.9599 -5.02985 11.146 5.85456 13.2755C21.6813 16.3721 37.6947 25.677 54.226 23.8537C54.8808 23.7815 60.6629 21.6505 61.2345 22.4127C61.3244 22.5325 50.2333 26.3858 49.6738 26.6047C39.0518 30.7612 28.2892 35.1034 18.0047 40.0321C13.195 42.3372 7.20219 45.3909 5.10132 50.6431" stroke="#5dc700e0" stroke-width="3" stroke-linecap="round" stroke-linejoin="round"/>
</svg>
