<svg width="120" height="77" viewBox="0 0 120 77" fill="none" xmlns="http://www.w3.org/2000/svg">
<path id="Vector 251" d="M64.8505 3.0612C69.3098 -3.00047 63.4149 18.4566 59.825 25.0704C52.3011 38.9321 38.1004 40.2687 23.9853 38.6631C16.5531 37.8176 -1.13054 32.9884 2.12134 21.9605C4.61943 13.4888 25.2891 24.0008 29.1807 25.6052C40.7673 30.3821 57.1356 37.2059 61.0539 50.6038C63.4038 58.6387 60.3195 70.4783 51.0353 71.6398C44.0603 72.5124 40.7889 63.9413 44.6976 58.5632C47.2455 55.0575 53.1349 53.2859 57.0429 52.0637C64.9521 49.5902 74.2192 49.127 82.4603 49.6828C93.4712 50.4254 107.688 56.9474 110.346 68.7338C112.255 77.1978 106.25 75.4673 100.904 72.3093C92.0687 67.0897 86.6645 56.502 84.7488 46.6209C82.9688 37.4394 91.0118 30.2929 99.0703 27.6786C104.745 25.8375 111.911 25.5445 117.233 28.6172C118.413 29.2984 118.175 28.8607 117.384 29.182C114.1 30.5173 111.622 34.2117 108.153 35.7C96.0055 40.9122 84.9771 31.7774 77.2624 23.5071C73.8537 19.853 70.9409 15.8276 67.6073 12.1173C66.901 11.3313 63.8897 8.10537 66.3362 8.60601" stroke="#1E1E1E" stroke-width="3" stroke-linecap="round" stroke-linejoin="round"/>
</svg>
