<svg width="217" height="52" viewBox="0 0 217 52" fill="none" xmlns="http://www.w3.org/2000/svg">
<path id="Vector 312" d="M15.1145 2.1197C68.6385 0.101834 122.528 7.0969 175.565 13.2956C192.267 15.2477 175.249 12.2654 169.666 11.7435C143.996 9.34384 117.986 10.8676 92.3015 12.1062C63.8073 13.4803 -21.3658 22.002 7.03372 19.3414C55.058 14.8422 103.485 13.7857 151.68 11.92C155.917 11.7559 173.022 9.0859 177.23 12.5789C178.413 13.56 174.183 13.1722 172.637 13.2473C163.173 13.707 153.685 13.8429 144.216 14.2156C119.44 15.1908 94.6137 15.9855 69.8674 17.5376C61.7152 18.0489 53.1166 18.7201 44.9901 19.7992C42.6944 20.1041 32.1003 20.7321 29.8271 23.101C28.7719 24.2005 32.7529 24.1415 34.2855 24.2741C44.0244 25.1169 53.8892 24.8292 63.6469 24.7084C91.7697 24.3604 119.889 23.7715 148.015 23.734C164.822 23.7116 183.051 22.5983 199.711 25.5691C210.513 27.4955 177.891 28.3214 166.914 28.5626C143.484 29.0775 120.043 28.3951 96.6213 29.4143C85.9407 29.8791 78.1154 30.4011 67.7459 31.7791C66.3144 31.9693 53.8192 32.9548 51.7868 35.3045C50.6928 36.5691 55.1563 35.6681 56.8454 35.6249C66.8023 35.3703 76.727 34.4966 86.6443 33.6475C111.818 31.492 136.792 30.4536 162.067 30.9691C169.161 31.1138 184.113 29.2476 190.901 33.0693C192.133 33.7634 188.197 34.0186 186.783 34.1515C177.099 35.0617 167.317 35.0876 157.602 35.2088C133.593 35.5082 109.807 36.4382 85.9604 39.3874C85.3775 39.4595 58.5196 42.8146 65.975 43.6582C78.2756 45.0501 91.1551 43.3333 103.439 42.6871C128.997 41.3425 154.556 40.5795 180.151 41.2141C188.713 41.4263 214.285 41.857 205.787 42.9062C192.16 44.5887 178.08 43.9243 164.384 44.5735C145.714 45.4584 127.143 47.2824 108.609 49.6063C95.525 51.2467 106.461 49.5015 111.912 48.8151C146.316 44.4834 180.396 42.3201 214.973 45.6122" stroke="#5dc700e0" stroke-width="3" stroke-linecap="round" stroke-linejoin="round"/>
</svg>
